<svg width="40" height="40" viewBox="0 0 40 40" fill="none" xmlns="http://www.w3.org/2000/svg">
  <!-- Main Leaf -->
  <path d="M20 8 Q28 14, 25 25 Q20 35, 12 32 Q7 28, 9 20 Q13 12, 20 8 Z" 
        fill="#8C9A84"/>
  
  <!-- Leaf Vein -->
  <path d="M20 8 Q17 20, 13 30" 
        stroke="#2D3A31" stroke-width="1.5" stroke-linecap="round" opacity="0.3"/>
  
  <!-- Side Veins -->
  <path d="M17 15 L13 18 M16 21 L12 24 M15 26 L12 28" 
        stroke="#2D3A31" stroke-width="1" stroke-linecap="round" opacity="0.2"/>
  
  <!-- Accent Leaf -->
  <path d="M22 13 Q27 18, 25 26 Q23 31, 17 29 Q14 27, 15 22 Q17 16, 22 13 Z" 
        fill="#C27B66" opacity="0.7"/>
  
  <!-- Small dots for detail -->
  <circle cx="27" cy="16" r="1.5" fill="#C27B66" opacity="0.5"/>
  <circle cx="11" cy="31" r="1.2" fill="#8C9A84" opacity="0.4"/>
</svg>